<svg version="1.1" id="Layer_1" xmlns="http://www.w3.org/2000/svg" xmlns:xlink="http://www.w3.org/1999/xlink" x="0px"
	y="0px" width="100%" viewBox="0 0 475 122" enable-background="new 0 0 475 122" xml:space="preserve">
	<path fill="rgba(0,0,0,0)" opacity="1.000000" stroke="none" d="
M312.000000,123.000000 
	C208.000000,123.000000 104.500000,123.000000 1.000000,123.000000 
	C1.000000,82.333336 1.000000,41.666668 1.000000,1.000000 
	C159.333328,1.000000 317.666656,1.000000 476.000000,1.000000 
	C476.000000,41.666668 476.000000,82.333336 476.000000,123.000000 
	C421.500000,123.000000 367.000000,123.000000 312.000000,123.000000 
M61.718861,82.700401 
	C63.836399,80.001251 65.410965,81.823021 66.867767,83.412170 
	C70.553421,87.432648 74.942162,87.593132 79.634109,85.772720 
	C81.595848,85.011604 83.420929,83.898262 86.003654,82.593773 
	C85.825317,86.411774 85.740623,89.674881 85.506256,92.927185 
	C85.077576,98.876114 84.300865,104.812859 84.168007,110.765816 
	C84.073524,114.998833 86.920593,116.123428 90.903046,116.083199 
	C94.940193,116.042404 96.013725,114.252930 96.061119,110.572876 
	C96.118546,106.113930 96.601974,101.649643 97.100670,97.210091 
	C97.664230,92.193100 98.449455,87.201004 99.097824,82.491959 
	C103.257866,82.865097 106.729500,83.778519 110.030128,83.356026 
	C118.800468,82.233398 124.378326,76.407791 127.442390,68.706337 
	C129.362350,63.880562 132.828079,62.737576 137.449188,61.199589 
	C136.922760,65.845749 136.418533,69.909195 136.015610,73.982666 
	C135.727386,76.896515 135.693832,79.764168 139.313934,80.835030 
	C146.140793,82.854477 148.641403,80.847664 149.088425,73.876900 
	C149.744156,63.650948 151.651764,53.715942 159.484589,46.186440 
	C160.567810,45.145168 162.614639,45.106342 164.215378,44.603432 
	C164.585632,46.094715 165.395340,47.630726 165.248917,49.069424 
	C164.663666,54.819672 163.888260,60.556637 162.982941,66.266762 
	C161.734909,74.138359 170.724930,83.306763 179.072159,78.800636 
	C182.775528,76.801430 186.130081,74.156082 189.764618,71.722588 
	C201.179276,82.535873 213.228699,79.373886 225.426483,72.039467 
	C225.732346,72.931732 225.927414,73.552818 226.156616,74.161041 
	C227.777740,78.463150 231.431030,77.993500 234.950867,77.956024 
	C238.667877,77.916443 237.616730,74.927109 238.252472,72.904106 
	C240.675720,65.192940 242.818604,57.362366 245.824234,49.880920 
	C247.023819,46.894962 250.191956,44.699848 253.086533,41.444576 
	C254.597580,49.183182 257.528076,51.199348 261.647919,48.722111 
	C264.796234,46.829052 266.686401,40.474606 265.080658,37.181831 
	C263.237274,33.401756 257.903839,31.525221 253.939209,33.838917 
	C250.664566,35.749935 247.856995,38.461315 244.524567,41.066586 
	C244.342911,39.864643 244.258347,39.218121 244.146118,38.576431 
	C243.283295,33.642376 239.655502,33.090332 235.571701,33.016754 
	C231.175034,32.937546 232.377060,36.166897 231.952332,38.608624 
	C230.791412,45.282627 229.682587,51.976089 228.186630,58.578812 
	C226.286911,66.963631 215.471619,72.895752 207.227646,70.002121 
	C204.713623,69.119713 202.139542,67.437759 200.448029,65.409050 
	C197.881134,62.330448 199.022339,60.498711 202.716827,58.981987 
	C208.213242,56.725491 213.836121,54.497162 218.813416,51.327599 
	C224.885788,47.460705 224.873489,40.087906 219.339874,35.958752 
	C212.610413,30.937237 203.470703,32.291771 195.756592,38.009975 
	C187.501816,44.128960 184.942581,53.187668 186.122055,63.316456 
	C186.508163,66.632080 182.623550,70.946739 179.301132,70.811829 
	C175.020813,70.638023 176.189117,67.227287 176.122742,64.806274 
	C176.064499,62.681786 176.556213,60.545685 176.754150,58.410000 
	C177.181366,53.800350 177.910492,49.186375 177.892670,44.576584 
	C177.873611,39.659801 174.412140,35.307404 170.778061,35.088055 
	C164.723572,34.722603 159.136200,35.640118 155.640488,41.535278 
	C155.052094,42.527550 153.829117,43.143524 152.015564,44.684105 
	C152.209991,42.059597 152.237030,40.612537 152.435806,39.189465 
	C153.601395,30.845051 155.007492,22.528463 155.935593,14.158480 
	C156.673538,7.503587 153.289505,4.692592 146.669891,5.872233 
	C145.559235,6.070157 144.446320,6.255558 143.115250,6.484439 
	C143.289032,8.991392 143.806015,11.278238 143.539566,13.469842 
	C142.122833,25.123581 140.449646,36.745914 138.989960,48.394753 
	C138.259232,54.226128 136.557510,56.208878 130.174255,57.552868 
	C130.264221,49.635151 129.487473,41.261265 121.001060,38.459064 
	C114.335678,36.258171 106.994949,37.268391 103.011284,45.615738 
	C102.067436,43.462635 101.823227,41.531094 100.965187,41.202511 
	C98.247353,40.161732 95.310066,39.363441 92.435059,39.283466 
	C91.663872,39.262012 90.289024,42.072453 90.094398,43.691441 
	C89.482513,48.781128 89.568199,53.959145 88.873459,59.033089 
	C88.231682,63.720192 87.566620,68.604393 85.653831,72.832718 
	C84.696770,74.948357 80.933975,75.794769 78.440178,77.215233 
	C77.634163,75.059120 76.158745,72.906158 76.148575,70.746300 
	C76.118965,64.455460 76.887978,58.164085 76.954025,51.868832 
	C77.062393,41.540699 76.580276,41.223221 66.156502,42.260540 
	C65.872871,42.288769 65.616745,42.593388 65.415443,42.724915 
	C64.918495,50.057758 64.177788,57.322666 63.992764,64.601692 
	C63.734161,74.775375 63.637810,75.194618 54.215694,78.715149 
	C52.507271,79.353500 50.764565,79.910286 49.013992,80.424011 
	C36.647823,84.053009 27.530577,78.193932 24.848543,65.553894 
	C22.969648,56.698925 24.401695,48.376602 27.506271,40.224529 
	C29.635565,34.633377 33.128368,30.048933 39.398365,28.487162 
	C43.116833,27.560942 45.677860,28.385565 47.141037,32.463646 
	C49.299210,38.478786 46.506313,43.034004 43.502247,47.635395 
	C46.888268,50.743095 50.928940,50.998802 54.143215,48.360718 
	C58.650604,44.661324 59.953732,39.578922 58.282650,33.553825 
	C56.494934,27.108202 52.211529,22.657925 45.901787,22.190449 
	C35.022995,21.384460 25.649424,24.662642 18.708679,34.254108 
	C11.566218,44.124325 10.061426,54.992367 11.084757,66.410431 
	C12.094707,77.679176 22.155317,88.857971 31.815413,89.889107 
	C42.298794,91.008125 52.399975,89.725540 61.718861,82.700401 
M407.837799,86.410019 
	C406.541901,91.179741 405.163086,95.928818 403.968964,100.723892 
	C402.053894,108.414162 400.189178,109.976448 392.397797,109.888153 
	C391.459320,113.614517 392.944794,115.793762 396.519348,117.028038 
	C404.116516,119.651276 411.275208,116.416557 414.131653,107.795746 
	C420.070190,89.873192 425.546234,71.792740 430.891693,53.682537 
	C431.870178,50.367462 433.530914,49.850948 436.272003,50.204479 
	C437.583435,50.373623 438.887451,50.964256 440.173218,50.903961 
	C445.113281,50.672279 445.033264,53.074272 443.881958,56.844696 
	C441.812103,63.623306 440.006775,70.492531 438.365143,77.389168 
	C436.855835,83.730072 439.146545,88.218987 444.782440,90.868355 
	C451.743866,94.140816 463.980835,89.670151 467.069458,82.549072 
	C467.603485,81.317810 467.145081,79.656082 467.145081,77.518196 
	C463.766083,79.902649 461.696136,81.991623 459.194214,82.935234 
	C457.095367,83.726822 454.040405,83.969109 452.272369,82.952553 
	C451.096985,82.276749 450.788330,78.812111 451.224915,76.847649 
	C452.697174,70.223412 454.764374,63.733990 456.422791,57.147385 
	C457.216217,53.996178 459.018066,52.884953 462.159424,52.942894 
	C464.350281,52.983307 466.552582,52.404282 468.749756,52.101955 
	C468.783508,51.398537 468.817261,50.695122 468.851013,49.991703 
	C466.086548,48.976688 463.322113,47.961678 460.050446,46.760422 
	C462.399048,41.220291 463.541626,35.702976 455.991974,33.398212 
	C460.204193,18.684515 448.337830,14.071169 438.199860,16.542639 
	C428.524323,18.901388 425.400574,27.385637 423.011810,35.793560 
	C422.003967,39.340992 421.110046,42.222111 416.969543,42.957821 
	C415.958282,43.137508 414.374634,44.380157 414.401581,45.082405 
	C414.439056,46.057949 415.739380,46.991745 416.514893,47.930328 
	C417.262665,48.835377 418.851898,49.978497 418.665100,50.580891 
	C416.266663,58.315102 414.120026,66.206436 410.714996,73.500275 
	C409.721283,75.628853 404.958008,75.997643 401.922546,77.173050 
	C401.565552,74.485626 400.412445,71.608772 400.998474,69.145729 
	C402.874756,61.260128 405.317047,53.503754 407.703705,45.747601 
	C408.730347,42.411114 407.582184,40.951324 404.288940,40.981136 
	C402.309082,40.999062 400.332092,41.372658 398.352631,41.383831 
	C396.293274,41.395458 394.045105,41.652420 392.206757,40.948025 
	C386.156403,38.629719 380.382751,38.854267 374.685608,41.843243 
	C364.287292,47.298668 359.994354,65.419006 362.682526,75.263000 
	C364.363129,81.417328 367.910614,84.638435 374.211884,83.847717 
	C378.818420,83.269646 383.171722,80.673286 387.774353,78.924751 
	C391.865540,85.804626 396.489716,87.504532 405.317749,85.029808 
	C406.027771,84.830780 406.980927,85.499123 407.837799,86.410019 
M272.988953,58.838165 
	C275.787354,69.187981 282.510162,75.809219 292.677795,78.682899 
	C302.587311,81.483627 311.929901,78.925446 320.754913,74.305138 
	C324.087891,80.818489 326.794922,82.014656 332.173981,80.591393 
	C335.517883,71.484055 338.248474,63.001911 341.785828,54.870743 
	C343.458374,51.026070 346.315826,47.365948 351.736877,46.866234 
	C351.597900,49.114712 351.500214,50.695610 351.389740,52.483253 
	C355.219818,53.008152 358.875061,54.108547 361.376190,50.121635 
	C363.846405,46.183929 363.553467,41.828327 360.670074,39.249001 
	C357.270844,36.208248 352.221558,36.130760 348.378510,39.203606 
	C346.494568,40.709991 344.791779,42.442932 342.583191,44.460487 
	C342.240448,42.900867 342.079865,42.113548 341.893677,41.332333 
	C340.864197,37.012650 338.113068,35.752041 333.785065,35.921444 
	C329.155090,36.102673 329.725311,39.601624 329.067810,42.213280 
	C327.658783,47.809658 326.022888,53.429272 325.450867,59.136688 
	C324.645874,67.168579 319.078735,69.260590 312.741333,70.818901 
	C310.825439,71.290009 308.810822,71.879906 306.893921,71.732544 
	C300.294403,71.225220 293.871857,70.578194 289.496216,64.229141 
	C284.502319,56.982944 285.621338,49.358887 287.183136,41.713154 
	C289.062378,32.513256 293.063354,24.244493 301.599792,19.528330 
	C304.041901,18.179108 308.428314,18.162455 310.837616,19.496019 
	C313.823029,21.148470 315.025665,25.014147 313.009735,28.714695 
	C311.238770,31.965561 309.355530,35.155254 307.488434,38.430656 
	C311.854889,42.175285 318.898895,42.065891 321.605255,37.435150 
	C327.227234,27.815622 324.897858,16.538763 312.516724,13.033448 
	C300.610046,9.662449 288.354797,14.827094 281.006622,24.841515 
	C273.673370,34.835629 272.255798,46.100269 272.988953,58.838165 
M68.379204,32.481701 
	C69.353951,32.642010 70.324051,32.896561 71.304321,32.944958 
	C74.241531,33.089977 77.186577,33.012138 77.848228,29.256077 
	C78.483299,25.650881 77.564468,22.499941 73.860321,21.132980 
	C70.253212,19.801836 67.892838,22.393091 66.908112,25.082150 
	C66.203384,27.006636 67.411537,29.631613 68.379204,32.481701 
z" />
	<path fill="#ffffff" opacity="1.000000" stroke="none" d="
M61.424603,82.853226 
	C52.399975,89.725540 42.298794,91.008125 31.815413,89.889107 
	C22.155317,88.857971 12.094707,77.679176 11.084757,66.410431 
	C10.061426,54.992367 11.566218,44.124325 18.708679,34.254108 
	C25.649424,24.662642 35.022995,21.384460 45.901787,22.190449 
	C52.211529,22.657925 56.494934,27.108202 58.282650,33.553825 
	C59.953732,39.578922 58.650604,44.661324 54.143215,48.360718 
	C50.928940,50.998802 46.888268,50.743095 43.502247,47.635395 
	C46.506313,43.034004 49.299210,38.478786 47.141037,32.463646 
	C45.677860,28.385565 43.116833,27.560942 39.398365,28.487162 
	C33.128368,30.048933 29.635565,34.633377 27.506271,40.224529 
	C24.401695,48.376602 22.969648,56.698925 24.848543,65.553894 
	C27.530577,78.193932 36.647823,84.053009 49.013992,80.424011 
	C50.764565,79.910286 52.507271,79.353500 54.215694,78.715149 
	C63.637810,75.194618 63.734161,74.775375 63.992764,64.601692 
	C64.177788,57.322666 64.918495,50.057758 65.415443,42.724915 
	C65.616745,42.593388 65.872871,42.288769 66.156502,42.260540 
	C76.580276,41.223221 77.062393,41.540699 76.954025,51.868832 
	C76.887978,58.164085 76.118965,64.455460 76.148575,70.746300 
	C76.158745,72.906158 77.634163,75.059120 78.440178,77.215233 
	C80.933975,75.794769 84.696770,74.948357 85.653831,72.832718 
	C87.566620,68.604393 88.231682,63.720192 88.873459,59.033089 
	C89.568199,53.959145 89.482513,48.781128 90.094398,43.691441 
	C90.289024,42.072453 91.663872,39.262012 92.435059,39.283466 
	C95.310066,39.363441 98.247353,40.161732 100.965187,41.202511 
	C101.823227,41.531094 102.067436,43.462635 103.011284,45.615738 
	C106.994949,37.268391 114.335678,36.258171 121.001060,38.459064 
	C129.487473,41.261265 130.264221,49.635151 130.174255,57.552868 
	C136.557510,56.208878 138.259232,54.226128 138.989960,48.394753 
	C140.449646,36.745914 142.122833,25.123581 143.539566,13.469842 
	C143.806015,11.278238 143.289032,8.991392 143.115250,6.484439 
	C144.446320,6.255558 145.559235,6.070157 146.669891,5.872233 
	C153.289505,4.692592 156.673538,7.503587 155.935593,14.158480 
	C155.007492,22.528463 153.601395,30.845051 152.435806,39.189465 
	C152.237030,40.612537 152.209991,42.059597 152.015564,44.684105 
	C153.829117,43.143524 155.052094,42.527550 155.640488,41.535278 
	C159.136200,35.640118 164.723572,34.722603 170.778061,35.088055 
	C174.412140,35.307404 177.873611,39.659801 177.892670,44.576584 
	C177.910492,49.186375 177.181366,53.800350 176.754150,58.410000 
	C176.556213,60.545685 176.064499,62.681786 176.122742,64.806274 
	C176.189117,67.227287 175.020813,70.638023 179.301132,70.811829 
	C182.623550,70.946739 186.508163,66.632080 186.122055,63.316456 
	C184.942581,53.187668 187.501816,44.128960 195.756592,38.009975 
	C203.470703,32.291771 212.610413,30.937237 219.339874,35.958752 
	C224.873489,40.087906 224.885788,47.460705 218.813416,51.327599 
	C213.836121,54.497162 208.213242,56.725491 202.716827,58.981987 
	C199.022339,60.498711 197.881134,62.330448 200.448029,65.409050 
	C202.139542,67.437759 204.713623,69.119713 207.227646,70.002121 
	C215.471619,72.895752 226.286911,66.963631 228.186630,58.578812 
	C229.682587,51.976089 230.791412,45.282627 231.952332,38.608624 
	C232.377060,36.166897 231.175034,32.937546 235.571701,33.016754 
	C239.655502,33.090332 243.283295,33.642376 244.146118,38.576431 
	C244.258347,39.218121 244.342911,39.864643 244.524567,41.066586 
	C247.856995,38.461315 250.664566,35.749935 253.939209,33.838917 
	C257.903839,31.525221 263.237274,33.401756 265.080658,37.181831 
	C266.686401,40.474606 264.796234,46.829052 261.647919,48.722111 
	C257.528076,51.199348 254.597580,49.183182 253.086533,41.444576 
	C250.191956,44.699848 247.023819,46.894962 245.824234,49.880920 
	C242.818604,57.362366 240.675720,65.192940 238.252472,72.904106 
	C237.616730,74.927109 238.667877,77.916443 234.950867,77.956024 
	C231.431030,77.993500 227.777740,78.463150 226.156616,74.161041 
	C225.927414,73.552818 225.732346,72.931732 225.426483,72.039467 
	C213.228699,79.373886 201.179276,82.535873 189.764618,71.722588 
	C186.130081,74.156082 182.775528,76.801430 179.072159,78.800636 
	C170.724930,83.306763 161.734909,74.138359 162.982941,66.266762 
	C163.888260,60.556637 164.663666,54.819672 165.248917,49.069424 
	C165.395340,47.630726 164.585632,46.094715 164.215378,44.603432 
	C162.614639,45.106342 160.567810,45.145168 159.484589,46.186440 
	C151.651764,53.715942 149.744156,63.650948 149.088425,73.876900 
	C148.641403,80.847664 146.140793,82.854477 139.313934,80.835030 
	C135.693832,79.764168 135.727386,76.896515 136.015610,73.982666 
	C136.418533,69.909195 136.922760,65.845749 137.449188,61.199589 
	C132.828079,62.737576 129.362350,63.880562 127.442390,68.706337 
	C124.378326,76.407791 118.800468,82.233398 110.030128,83.356026 
	C106.729500,83.778519 103.257866,82.865097 99.097824,82.491959 
	C98.449455,87.201004 97.664230,92.193100 97.100670,97.210091 
	C96.601974,101.649643 96.118546,106.113930 96.061119,110.572876 
	C96.013725,114.252930 94.940193,116.042404 90.903046,116.083199 
	C86.920593,116.123428 84.073524,114.998833 84.168007,110.765816 
	C84.300865,104.812859 85.077576,98.876114 85.506256,92.927185 
	C85.740623,89.674881 85.825317,86.411774 86.003654,82.593773 
	C83.420929,83.898262 81.595848,85.011604 79.634109,85.772720 
	C74.942162,87.593132 70.553421,87.432648 66.867767,83.412170 
	C65.410965,81.823021 63.836399,80.001251 61.424603,82.853226 
M115.740883,66.378769 
	C115.791344,64.921402 116.465553,63.006130 115.788010,62.083206 
	C112.195671,57.189804 111.920441,52.406742 116.114235,47.751598 
	C112.809639,45.315086 110.410469,45.717415 108.501518,48.132366 
	C102.967224,55.133633 100.495041,63.308746 100.244209,72.092781 
	C100.209671,73.302055 102.310333,75.441856 103.673241,75.673149 
	C110.067474,76.758247 111.368370,75.621719 115.740883,66.378769 
M204.033691,41.555511 
	C201.718826,45.187157 198.639008,48.552948 199.644363,54.126080 
	C204.371536,52.353806 208.841583,51.204704 211.084702,46.594604 
	C212.255600,44.188141 214.635422,41.144123 211.239670,39.299854 
	C209.753799,38.492859 206.811111,40.368217 204.033691,41.555511 
z" />
	<path fill="#ffffff" opacity="1.000000" stroke="none" d="
M407.829468,86.087204 
	C406.980927,85.499123 406.027771,84.830780 405.317749,85.029808 
	C396.489716,87.504532 391.865540,85.804626 387.774353,78.924751 
	C383.171722,80.673286 378.818420,83.269646 374.211884,83.847717 
	C367.910614,84.638435 364.363129,81.417328 362.682526,75.263000 
	C359.994354,65.419006 364.287292,47.298668 374.685608,41.843243 
	C380.382751,38.854267 386.156403,38.629719 392.206757,40.948025 
	C394.045105,41.652420 396.293274,41.395458 398.352631,41.383831 
	C400.332092,41.372658 402.309082,40.999062 404.288940,40.981136 
	C407.582184,40.951324 408.730347,42.411114 407.703705,45.747601 
	C405.317047,53.503754 402.874756,61.260128 400.998474,69.145729 
	C400.412445,71.608772 401.565552,74.485626 401.922546,77.173050 
	C404.958008,75.997643 409.721283,75.628853 410.714996,73.500275 
	C414.120026,66.206436 416.266663,58.315102 418.665100,50.580891 
	C418.851898,49.978497 417.262665,48.835377 416.514893,47.930328 
	C415.739380,46.991745 414.439056,46.057949 414.401581,45.082405 
	C414.374634,44.380157 415.958282,43.137508 416.969543,42.957821 
	C421.110046,42.222111 422.003967,39.340992 423.011810,35.793560 
	C425.400574,27.385637 428.524323,18.901388 438.199860,16.542639 
	C448.337830,14.071169 460.204193,18.684515 455.991974,33.398212 
	C463.541626,35.702976 462.399048,41.220291 460.050446,46.760422 
	C463.322113,47.961678 466.086548,48.976688 468.851013,49.991703 
	C468.817261,50.695122 468.783508,51.398537 468.749756,52.101955 
	C466.552582,52.404282 464.350281,52.983307 462.159424,52.942894 
	C459.018066,52.884953 457.216217,53.996178 456.422791,57.147385 
	C454.764374,63.733990 452.697174,70.223412 451.224915,76.847649 
	C450.788330,78.812111 451.096985,82.276749 452.272369,82.952553 
	C454.040405,83.969109 457.095367,83.726822 459.194214,82.935234 
	C461.696136,81.991623 463.766083,79.902649 467.145081,77.518196 
	C467.145081,79.656082 467.603485,81.317810 467.069458,82.549072 
	C463.980835,89.670151 451.743866,94.140816 444.782440,90.868355 
	C439.146545,88.218987 436.855835,83.730072 438.365143,77.389168 
	C440.006775,70.492531 441.812103,63.623306 443.881958,56.844696 
	C445.033264,53.074272 445.113281,50.672279 440.173218,50.903961 
	C438.887451,50.964256 437.583435,50.373623 436.272003,50.204479 
	C433.530914,49.850948 431.870178,50.367462 430.891693,53.682537 
	C425.546234,71.792740 420.070190,89.873192 414.131653,107.795746 
	C411.275208,116.416557 404.116516,119.651276 396.519348,117.028038 
	C392.944794,115.793762 391.459320,113.614517 392.397797,109.888153 
	C400.189178,109.976448 402.053894,108.414162 403.968964,100.723892 
	C405.163086,95.928818 406.541901,91.179741 407.829468,86.087204 
M389.088104,47.231133 
	C384.236450,46.639824 380.929993,49.291927 379.150391,53.182983 
	C376.976013,57.937183 375.229156,63.022366 374.300690,68.146233 
	C373.913269,70.284203 376.111542,72.890709 377.134155,75.284180 
	C379.529419,74.187500 383.054810,73.732925 384.110413,71.875061 
	C387.426849,66.038330 389.906281,59.712456 392.519012,53.495811 
	C393.662140,50.775879 392.624878,48.646263 389.088104,47.231133 
M436.514404,44.608994 
	C439.446259,44.997681 442.370453,45.492496 445.315033,45.704247 
	C446.101257,45.760788 447.220856,45.159763 447.723785,44.504677 
	C450.210266,41.265923 449.129517,37.355759 445.427521,35.610542 
	C444.676636,35.256546 443.982849,34.781464 443.410614,34.448288 
	C445.068542,31.259636 446.610779,28.881639 447.512756,26.281525 
	C447.896362,25.175707 447.221741,23.411205 446.476105,22.324938 
	C446.087402,21.758686 444.361237,21.637539 443.477295,21.962698 
	C438.568695,23.768389 433.378693,39.171947 436.514404,44.608994 
z" />
	<path fill="#ffffff" opacity="1.000000" stroke="none" d="
M272.951294,58.397438 
	C272.255798,46.100269 273.673370,34.835629 281.006622,24.841515 
	C288.354797,14.827094 300.610046,9.662449 312.516724,13.033448 
	C324.897858,16.538763 327.227234,27.815622 321.605255,37.435150 
	C318.898895,42.065891 311.854889,42.175285 307.488434,38.430656 
	C309.355530,35.155254 311.238770,31.965561 313.009735,28.714695 
	C315.025665,25.014147 313.823029,21.148470 310.837616,19.496019 
	C308.428314,18.162455 304.041901,18.179108 301.599792,19.528330 
	C293.063354,24.244493 289.062378,32.513256 287.183136,41.713154 
	C285.621338,49.358887 284.502319,56.982944 289.496216,64.229141 
	C293.871857,70.578194 300.294403,71.225220 306.893921,71.732544 
	C308.810822,71.879906 310.825439,71.290009 312.741333,70.818901 
	C319.078735,69.260590 324.645874,67.168579 325.450867,59.136688 
	C326.022888,53.429272 327.658783,47.809658 329.067810,42.213280 
	C329.725311,39.601624 329.155090,36.102673 333.785065,35.921444 
	C338.113068,35.752041 340.864197,37.012650 341.893677,41.332333 
	C342.079865,42.113548 342.240448,42.900867 342.583191,44.460487 
	C344.791779,42.442932 346.494568,40.709991 348.378510,39.203606 
	C352.221558,36.130760 357.270844,36.208248 360.670074,39.249001 
	C363.553467,41.828327 363.846405,46.183929 361.376190,50.121635 
	C358.875061,54.108547 355.219818,53.008152 351.389740,52.483253 
	C351.500214,50.695610 351.597900,49.114712 351.736877,46.866234 
	C346.315826,47.365948 343.458374,51.026070 341.785828,54.870743 
	C338.248474,63.001911 335.517883,71.484055 332.173981,80.591393 
	C326.794922,82.014656 324.087891,80.818489 320.754913,74.305138 
	C311.929901,78.925446 302.587311,81.483627 292.677795,78.682899 
	C282.510162,75.809219 275.787354,69.187981 272.951294,58.397438 
z" />
	<path fill="#ffffff" opacity="1.000000" stroke="none" d="
M68.072708,32.212875 
	C67.411537,29.631613 66.203384,27.006636 66.908112,25.082150 
	C67.892838,22.393091 70.253212,19.801836 73.860321,21.132980 
	C77.564468,22.499941 78.483299,25.650881 77.848228,29.256077 
	C77.186577,33.012138 74.241531,33.089977 71.304321,32.944958 
	C70.324051,32.896561 69.353951,32.642010 68.072708,32.212875 
z" />
	<path fill="rgba(0,0,0,0)" opacity="1.000000" stroke="none" d="
M115.567093,66.695892 
	C111.368370,75.621719 110.067474,76.758247 103.673241,75.673149 
	C102.310333,75.441856 100.209671,73.302055 100.244209,72.092781 
	C100.495041,63.308746 102.967224,55.133633 108.501518,48.132366 
	C110.410469,45.717415 112.809639,45.315086 116.114235,47.751598 
	C111.920441,52.406742 112.195671,57.189804 115.788010,62.083206 
	C116.465553,63.006130 115.791344,64.921402 115.567093,66.695892 
z" />
	<path fill="rgba(0,0,0,0)" opacity="1.000000" stroke="none" d="
M204.281830,41.290516 
	C206.811111,40.368217 209.753799,38.492859 211.239670,39.299854 
	C214.635422,41.144123 212.255600,44.188141 211.084702,46.594604 
	C208.841583,51.204704 204.371536,52.353806 199.644363,54.126080 
	C198.639008,48.552948 201.718826,45.187157 204.281830,41.290516 
z" />
	<path fill="rgba(0,0,0,0)" opacity="1.000000" stroke="none" d="
M389.452972,47.370480 
	C392.624878,48.646263 393.662140,50.775879 392.519012,53.495811 
	C389.906281,59.712456 387.426849,66.038330 384.110413,71.875061 
	C383.054810,73.732925 379.529419,74.187500 377.134155,75.284180 
	C376.111542,72.890709 373.913269,70.284203 374.300690,68.146233 
	C375.229156,63.022366 376.976013,57.937183 379.150391,53.182983 
	C380.929993,49.291927 384.236450,46.639824 389.452972,47.370480 
z" />
	<path fill="rgba(0,0,0,0)" opacity="1.000000" stroke="none" d="
M436.201843,44.377483 
	C433.378693,39.171947 438.568695,23.768389 443.477295,21.962698 
	C444.361237,21.637539 446.087402,21.758686 446.476105,22.324938 
	C447.221741,23.411205 447.896362,25.175707 447.512756,26.281525 
	C446.610779,28.881639 445.068542,31.259636 443.410614,34.448288 
	C443.982849,34.781464 444.676636,35.256546 445.427521,35.610542 
	C449.129517,37.355759 450.210266,41.265923 447.723785,44.504677 
	C447.220856,45.159763 446.101257,45.760788 445.315033,45.704247 
	C442.370453,45.492496 439.446259,44.997681 436.201843,44.377483 
z" />
</svg>